<svg width="66" height="67" viewBox="0 0 66 67" fill="none" xmlns="http://www.w3.org/2000/svg">
<path d="M32.851 0C14.7371 0 0 14.9287 0 33.2787C0 51.6292 14.7371 66.5574 32.851 66.5574C50.9654 66.5574 65.7031 51.6292 65.7031 33.2787C65.7026 14.9287 50.9649 0 32.851 0ZM32.851 63.2751C16.5235 63.2751 3.24012 49.819 3.24012 33.2787C3.24012 16.7389 16.5235 3.28225 32.851 3.28225C49.1785 3.28225 62.463 16.7389 62.463 33.2787C62.4625 49.819 49.1785 63.2751 32.851 63.2751Z" fill="white"/>
<path fill-rule="evenodd" clip-rule="evenodd" d="M51.8043 18.0566C51.9284 17.943 52 17.7751 52 17.5982C52 17.2678 51.7549 17 51.4525 17H14.8499C14.3805 17 14 17.4158 14 17.9287C14 18.2048 14.1124 18.4666 14.3068 18.643L32.1505 34.8439C32.5393 35.197 33.1036 35.1955 33.491 34.8405L51.8043 18.0566ZM15.7143 23.388C15.0328 22.7693 14 23.2988 14 24.267V47.8571C14 48.4883 14.4683 49 15.0459 49H50.9541C51.5317 49 52 48.4883 52 47.8571V23.8079C52 22.8372 50.9626 22.3085 50.282 22.9322L33.6098 38.2121L33.4983 38.3142C33.1109 38.6692 32.5467 38.6707 32.1578 38.3176L32.0459 38.216L15.7143 23.388Z" fill="white"/>
</svg>
