<svg width="67" height="100" viewBox="0 0 67 100" fill="none" xmlns="http://www.w3.org/2000/svg">
<g clip-path="url(#clip0_410_22)">
<path d="M16.6686 100C25.8686 100 33.3353 92.5333 33.3353 83.3333V66.6667H16.6686C7.46862 66.6667 0.00195312 74.1333 0.00195312 83.3333C0.00195312 92.5333 7.46862 100 16.6686 100Z" fill="#0ACF83"/>
<path d="M0.00195312 50C0.00195312 40.8 7.46862 33.3333 16.6686 33.3333H33.3353V66.6667H16.6686C7.46862 66.6667 0.00195312 59.2 0.00195312 50Z" fill="#A259FF"/>
<path d="M0.00195312 16.6667C0.00195312 7.46667 7.46862 0 16.6686 0H33.3353V33.3333H16.6686C7.46862 33.3333 0.00195312 25.8667 0.00195312 16.6667Z" fill="#F24E1E"/>
<path d="M33.3359 0H50.0026C59.2026 0 66.6693 7.46667 66.6693 16.6667C66.6693 25.8667 59.2026 33.3333 50.0026 33.3333H33.3359V0Z" fill="#FF7262"/>
<path d="M66.6693 50C66.6693 59.2 59.2026 66.6667 50.0026 66.6667C40.8026 66.6667 33.3359 59.2 33.3359 50C33.3359 40.8 40.8026 33.3333 50.0026 33.3333C59.2026 33.3333 66.6693 40.8 66.6693 50Z" fill="#1ABCFE"/>
</g>
<defs>
<clipPath id="clip0_410_22">
<rect width="66.67" height="100" fill="white"/>
</clipPath>
</defs>
</svg>
