<svg width="100" height="100" viewBox="0 0 100 100" fill="none" xmlns="http://www.w3.org/2000/svg">
<g clip-path="url(#clip0_410_18)">
<path d="M98.1141 45.5447L54.4531 1.88608C51.9402 -0.628369 47.8621 -0.628369 45.3461 1.88608L36.2797 10.9525L47.7809 22.4537C50.4535 21.5505 53.5184 22.1564 55.6488 24.2869C57.7895 26.431 58.391 29.522 57.466 32.2033L68.55 43.2876C71.2316 42.3638 74.3258 42.9615 76.4676 45.1068C79.4609 48.099 79.4609 52.9486 76.4676 55.9427C73.4734 58.9373 68.6238 58.9373 65.6281 55.9427C63.3766 53.6888 62.8203 50.3822 63.9602 47.6083L53.6234 37.2716L53.6223 64.4736C54.3716 64.8441 55.056 65.3335 55.6488 65.9228C58.6422 68.915 58.6422 73.765 55.6488 76.7615C52.6547 79.7544 47.8027 79.7544 44.8129 76.7615C41.8195 73.765 41.8195 68.9154 44.8129 65.9232C45.5302 65.2055 46.3827 64.6371 47.3211 64.2509V36.7955C46.3814 36.4118 45.5284 35.8431 44.8129 35.1232C42.5449 32.8583 41.9996 29.5306 43.1617 26.7458L31.8242 15.4072L1.88672 45.3427C-0.628906 47.8595 -0.628906 51.938 1.88672 54.4529L45.5484 98.1123C48.0621 100.627 52.1395 100.627 54.6562 98.1123L98.1137 54.6556C100.629 52.14 100.629 48.0591 98.1141 45.5447Z" fill="#DE4C36"/>
</g>
<defs>
<clipPath id="clip0_410_18">
<rect width="100" height="100" fill="white"/>
</clipPath>
</defs>
</svg>
