<svg width="70" height="71" viewBox="0 0 70 71" fill="none" xmlns="http://www.w3.org/2000/svg">
<path d="M34.8516 70C53.5594 70 68.7031 54.6407 68.7031 35.7213C68.7031 16.8019 53.5594 1.44263 34.8516 1.44263C16.1437 1.44263 1 16.8019 1 35.7213C1 54.6407 16.1437 70 34.8516 70Z" stroke="#ffff" stroke-width="2"/>
<path d="M50.3982 14.1882C50.3982 14.1882 47.2263 14.1882 44.0045 19.0822C42.4103 17.4656 37.5626 17.4503 35.9562 17.4503C34.3438 17.4503 29.4991 17.4656 27.9033 19.0822C24.6816 14.1882 21.5172 14.1882 21.5172 14.1882C19.7946 18.5683 21.1428 21.5398 21.4674 22.3443C19.858 23.9761 18.2411 25.6079 18.2411 33.7639C18.2411 41.92 24.0958 46.011 31.1311 46.8139C30.2268 47.6107 29.5203 50.076 29.5203 51.7078C27.7131 52.523 22.6842 53.306 19.858 48.4457C19.858 48.4457 18.2472 45.1836 15.0269 45.1836C15.0269 45.1836 11.8067 44.8762 15.0269 46.8154C15.0269 46.8154 16.6378 48.4472 18.2472 51.7093C18.2472 51.7093 20.7065 58.5241 29.5203 56.6033C29.5384 59.2567 29.5203 63.129 29.5203 63.129H42.3952V51.7093C42.3952 50.4186 41.6916 47.6107 40.7843 46.8154C47.8196 46.0125 53.6668 41.9215 53.6668 33.7655C53.6668 25.6094 52.0559 23.9776 50.4465 22.3458C50.7741 21.5398 52.1193 18.5683 50.3982 14.1882V14.1882Z" fill="#ffff"/>
</svg>
