<svg width="67" height="67" viewBox="0 0 67 67" fill="none" xmlns="http://www.w3.org/2000/svg">
<path d="M33.6013 0.147461C15.4873 0.147461 0.75 15.0762 0.75 33.4262C0.75 51.7761 15.4873 66.7048 33.6013 66.7048C51.7159 66.7048 66.4531 51.7761 66.4531 33.4262C66.4531 15.0762 51.7153 0.147461 33.6013 0.147461ZM33.6013 63.4226C17.2737 63.4226 3.99015 49.9659 3.99015 33.4262C3.99015 16.8864 17.2737 3.42971 33.6013 3.42971C49.9289 3.42971 63.213 16.8864 63.213 33.4262C63.213 49.9659 49.9289 63.4226 33.6013 63.4226Z" fill="#ffff"/>
<path d="M43.9782 17.562H23.4195C20.3873 17.562 17.9199 20.0609 17.9199 23.1331V44.0547C17.9199 47.1263 20.3868 49.6257 23.4195 49.6257H43.9777C47.0099 49.6257 49.4773 47.1268 49.4773 44.0547V23.1325C49.4773 20.0609 47.0105 17.562 43.9782 17.562ZM38.4543 33.5345C38.4543 36.1909 36.3212 38.3518 33.6989 38.3518C31.0765 38.3518 28.9434 36.1909 28.9434 33.5345C28.9434 32.2167 29.4694 31.022 30.3183 30.1516H37.0789C37.9289 31.022 38.4543 32.2167 38.4543 33.5345ZM39.833 22.0193H44.65V27.0461H39.833V22.0193ZM43.9782 46.3429H23.4195C22.1737 46.3429 21.1601 45.3161 21.1601 44.0541V30.1516H26.4437C25.9733 31.1828 25.7033 32.3261 25.7033 33.5345C25.7033 38.0011 29.2901 41.634 33.6989 41.634C38.1076 41.634 41.6945 38.0006 41.6945 33.5345C41.6945 32.3261 41.4245 31.1828 40.9541 30.1516H46.2372V44.0541C46.2372 45.3161 45.2235 46.3429 43.9782 46.3429Z" fill="#ffff"/>
</svg>
