<svg width="100" height="100" viewBox="0 0 100 100" fill="none" xmlns="http://www.w3.org/2000/svg">
<g clip-path="url(#clip0_410_28)">
<path d="M76.5625 0H23.4375C10.4933 0 0 10.4933 0 23.4375V76.5625C0 89.5067 10.4933 100 23.4375 100H76.5625C89.5067 100 100 89.5067 100 76.5625V23.4375C100 10.4933 89.5067 0 76.5625 0Z" fill="#F0DB4F"/>
<path d="M26.2934 83.5672L33.9457 78.9359C35.4223 81.5535 36.7652 83.7684 39.9867 83.7684C43.0746 83.7684 45.0215 82.5605 45.0215 77.8621V45.9098H54.4191V77.9949C54.4191 87.7281 48.7137 92.1586 40.3895 92.1586C32.8719 92.1586 28.5082 88.2652 26.293 83.5664M59.5234 82.5602L67.175 78.1301C69.1895 81.4195 71.8074 83.8359 76.4387 83.8359C80.3328 83.8359 82.8156 81.8891 82.8156 79.2039C82.8156 75.982 80.2648 74.8406 75.9688 72.9617L73.6199 71.9543C66.8398 69.0684 62.3422 65.4434 62.3422 57.791C62.3422 50.7426 67.7125 45.3723 76.1035 45.3723C82.0777 45.3723 86.3738 47.4535 89.4613 52.8906L82.1445 57.5895C80.5332 54.7031 78.7887 53.5621 76.1035 53.5621C73.3512 53.5621 71.6059 55.3074 71.6059 57.5895C71.6059 60.4086 73.3512 61.55 77.3785 63.2957L79.7277 64.3023C87.7156 67.7262 92.2133 71.216 92.2133 79.0695C92.2133 87.5281 85.568 92.1594 76.6402 92.1594C67.9141 92.1594 62.2754 87.9977 59.5234 82.5602Z" fill="#323330"/>
</g>
<defs>
<clipPath id="clip0_410_28">
<rect width="100" height="100" fill="white"/>
</clipPath>
</defs>
</svg>
