<svg width="67" height="67" viewBox="0 0 67 67" fill="none" xmlns="http://www.w3.org/2000/svg">
<path d="M33.726 0.147461C15.6121 0.147461 0.875 15.0762 0.875 33.4262C0.875 51.7766 15.6121 66.7048 33.726 66.7048C51.8404 66.7048 66.5781 51.7766 66.5781 33.4262C66.5776 15.0762 51.8399 0.147461 33.726 0.147461ZM33.726 63.4226C17.3985 63.4226 4.11512 49.9665 4.11512 33.4262C4.11512 16.8864 17.3985 3.42971 33.726 3.42971C50.0535 3.42971 63.338 16.8864 63.338 33.4262C63.3375 49.9665 50.0535 63.4226 33.726 63.4226Z" fill="#ffff"/>
<path d="M24.6415 26.3746H17.0391V46.4696H24.6415V26.3746Z" fill="#ffff"/>
<path d="M20.7656 23.169C22.8906 23.169 24.6133 21.5771 24.6133 19.6133C24.6133 17.6495 22.8906 16.0575 20.7656 16.0575C18.6406 16.0575 16.918 17.6495 16.918 19.6133C16.918 21.5771 18.6406 23.169 20.7656 23.169Z" fill="#ffff"/>
<path d="M43.7527 25.9209C42.1959 25.9209 40.8766 26.2081 39.7922 26.7819C38.709 27.3563 37.6386 28.3115 36.5797 29.6484V26.3749H29.5V46.4699H37.1024V36.8196C37.1024 34.9903 37.3892 33.7233 37.9621 33.0166C38.5351 32.3103 39.2814 31.9569 40.2032 31.9569C41.0375 31.9569 41.685 32.219 42.1462 32.7425C42.6074 33.266 42.8369 34.1582 42.8369 35.4203V46.4699H50.4771V33.6982C50.4771 31.0489 49.882 29.0905 48.6923 27.8224C47.5043 26.5544 45.8567 25.9209 43.7527 25.9209Z" fill="#ffff"/>
</svg>
