<svg width="503" height="342" viewBox="0 0 503 342" fill="none" xmlns="http://www.w3.org/2000/svg">
<rect x="0.5" y="0.5" width="502" height="339" rx="61.5" fill="#966A28" stroke="black"/>
<rect x="0.5" y="0.5" width="502" height="339" rx="61.5" fill="#1A4848" stroke="black"/>
<rect x="471.157" y="1.69032" width="51" height="550.994" rx="25.5" transform="rotate(57.5096 471.157 1.69032)" fill="#D9D9D9" stroke="black"/>
<path d="M182.509 210.447L184.999 214.248L191.129 210.233L193.444 213.766L187.314 217.782L190.014 221.904L196.947 217.362L199.35 221.029L187.84 228.57L175.529 209.779L187.039 202.238L189.442 205.906L182.509 210.447ZM211.291 186.351L223.601 205.141L219.024 208.14L211.641 196.871L214.821 210.893L211.128 213.313L199.498 204.788L206.898 216.084L202.321 219.082L190.011 200.292L195.418 196.749L209.213 206.304L205.911 189.875L211.291 186.351ZM237.628 182.18C238.869 181.699 240.1 181.67 241.321 182.094C242.531 182.5 243.492 183.247 244.205 184.336C245.234 185.906 245.499 187.518 245.001 189.171C244.508 190.794 243.281 192.248 241.318 193.534L232.565 199.269L220.255 180.478L228.713 174.937C230.623 173.686 232.399 173.147 234.043 173.32C235.704 173.481 237.026 174.311 238.008 175.81C238.733 176.917 239.04 178.028 238.931 179.146C238.839 180.252 238.405 181.263 237.628 182.18ZM229.812 185.081L232.81 183.117C233.56 182.626 234.025 182.092 234.208 181.513C234.396 180.905 234.28 180.28 233.859 179.638C233.438 178.995 232.911 178.639 232.279 178.569C231.664 178.487 230.982 178.692 230.232 179.183L227.234 181.147L229.812 185.081ZM238.095 190.367C238.862 189.864 239.34 189.309 239.528 188.701C239.723 188.063 239.604 187.414 239.171 186.754C238.739 186.094 238.177 185.722 237.485 185.64C236.811 185.546 236.091 185.75 235.323 186.253L232.004 188.427L234.722 192.576L238.095 190.367ZM259.792 181.431L251.237 176.898L250.14 177.617L254.787 184.711L250.209 187.709L237.899 168.919L245.581 163.886C247.063 162.916 248.49 162.35 249.864 162.19C251.256 162.017 252.509 162.217 253.623 162.788C254.725 163.341 255.638 164.171 256.363 165.277C257.181 166.526 257.555 167.875 257.484 169.325C257.431 170.762 256.852 172.136 255.747 173.447L264.958 178.047L259.792 181.431ZM248.018 174.379L250.855 172.52C251.694 171.97 252.184 171.356 252.326 170.677C252.485 169.986 252.319 169.265 251.828 168.516C251.36 167.802 250.778 167.38 250.081 167.25C249.402 167.109 248.643 167.313 247.804 167.862L244.967 169.721L248.018 174.379ZM262.34 158.148L264.83 161.949L270.96 157.933L273.275 161.466L267.145 165.482L269.846 169.604L276.778 165.062L279.181 168.729L267.671 176.27L255.361 157.479L266.871 149.939L269.273 153.606L262.34 158.148ZM287.482 136.436L293.127 159.593L287.399 163.346L268.424 148.921L273.295 145.73L287.247 156.865L282.637 139.61L287.482 136.436ZM296.375 135.851L298.865 139.652L304.994 135.636L307.309 139.169L301.179 143.185L303.88 147.307L310.813 142.765L313.215 146.433L301.705 153.973L289.395 135.182L300.905 127.642L303.307 131.309L296.375 135.851Z" fill="black"/>
<path d="M182.509 210.447L181.961 209.611L181.124 210.159L181.672 210.995L182.509 210.447ZM184.999 214.248L184.163 214.796L184.711 215.633L185.547 215.085L184.999 214.248ZM191.129 210.233L191.965 209.685L191.417 208.848L190.581 209.396L191.129 210.233ZM193.444 213.766L193.992 214.602L194.828 214.054L194.28 213.218L193.444 213.766ZM187.314 217.782L186.766 216.945L185.929 217.493L186.477 218.33L187.314 217.782ZM190.014 221.904L189.178 222.452L189.726 223.288L190.562 222.74L190.014 221.904ZM196.947 217.362L197.784 216.814L197.236 215.978L196.399 216.526L196.947 217.362ZM199.35 221.029L199.898 221.866L200.734 221.318L200.186 220.481L199.35 221.029ZM187.84 228.57L187.003 229.118L187.551 229.954L188.388 229.406L187.84 228.57ZM175.529 209.779L174.981 208.943L174.145 209.491L174.693 210.327L175.529 209.779ZM187.039 202.238L187.876 201.69L187.328 200.854L186.491 201.402L187.039 202.238ZM189.442 205.906L189.99 206.742L190.826 206.194L190.278 205.358L189.442 205.906ZM181.672 210.995L184.163 214.796L185.836 213.7L183.345 209.899L181.672 210.995ZM185.547 215.085L191.677 211.069L190.581 209.396L184.451 213.412L185.547 215.085ZM190.292 210.781L192.607 214.314L194.28 213.218L191.965 209.685L190.292 210.781ZM192.896 212.929L186.766 216.945L187.862 218.618L193.992 214.602L192.896 212.929ZM186.477 218.33L189.178 222.452L190.851 221.356L188.15 217.234L186.477 218.33ZM190.562 222.74L197.495 218.198L196.399 216.526L189.466 221.067L190.562 222.74ZM196.111 217.91L198.513 221.577L200.186 220.481L197.784 216.814L196.111 217.91ZM198.802 220.193L187.292 227.733L188.388 229.406L199.898 221.866L198.802 220.193ZM188.676 228.022L176.366 209.231L174.693 210.327L187.003 229.118L188.676 228.022ZM176.077 210.615L187.587 203.075L186.491 201.402L174.981 208.943L176.077 210.615ZM186.203 202.786L188.605 206.454L190.278 205.358L187.876 201.69L186.203 202.786ZM188.894 205.069L181.961 209.611L183.057 211.284L189.99 206.742L188.894 205.069ZM211.291 186.351L212.127 185.803L211.579 184.966L210.743 185.514L211.291 186.351ZM223.601 205.141L224.149 205.978L224.986 205.43L224.438 204.593L223.601 205.141ZM219.024 208.14L218.187 208.688L218.735 209.524L219.572 208.976L219.024 208.14ZM211.641 196.871L212.478 196.323L210.666 197.092L211.641 196.871ZM214.821 210.893L215.369 211.73L215.95 211.349L215.797 210.672L214.821 210.893ZM211.128 213.313L210.536 214.12L211.096 214.529L211.676 214.149L211.128 213.313ZM199.498 204.788L200.089 203.981L198.662 205.336L199.498 204.788ZM206.898 216.084L207.446 216.92L208.283 216.372L207.735 215.536L206.898 216.084ZM202.321 219.082L201.485 219.63L202.033 220.467L202.869 219.919L202.321 219.082ZM190.011 200.292L189.463 199.455L188.626 200.003L189.174 200.84L190.011 200.292ZM195.418 196.749L195.987 195.927L195.433 195.544L194.87 195.913L195.418 196.749ZM209.213 206.304L208.644 207.126L210.683 208.538L210.194 206.107L209.213 206.304ZM205.911 189.875L205.363 189.039L204.797 189.409L204.93 190.072L205.911 189.875ZM210.454 186.899L222.765 205.689L224.438 204.593L212.127 185.803L210.454 186.899ZM223.053 204.305L218.476 207.303L219.572 208.976L224.149 205.978L223.053 204.305ZM219.86 207.592L212.478 196.323L210.805 197.419L218.187 208.688L219.86 207.592ZM210.666 197.092L213.846 211.114L215.797 210.672L212.616 196.65L210.666 197.092ZM214.273 210.057L210.58 212.477L211.676 214.149L215.369 211.73L214.273 210.057ZM211.719 212.507L200.089 203.981L198.907 205.594L210.536 214.12L211.719 212.507ZM198.662 205.336L206.062 216.632L207.735 215.536L200.335 204.24L198.662 205.336ZM206.35 215.247L201.773 218.246L202.869 219.919L207.446 216.92L206.35 215.247ZM203.158 218.534L190.847 199.744L189.174 200.84L201.485 219.63L203.158 218.534ZM190.559 201.128L195.966 197.586L194.87 195.913L189.463 199.455L190.559 201.128ZM194.848 197.572L208.644 207.126L209.783 205.482L195.987 195.927L194.848 197.572ZM210.194 206.107L206.891 189.678L204.93 190.072L208.233 206.501L210.194 206.107ZM206.459 190.712L211.839 187.187L210.743 185.514L205.363 189.039L206.459 190.712ZM237.628 182.18L236.865 181.533L237.99 183.112L237.628 182.18ZM241.321 182.094L240.993 183.039L241.003 183.042L241.321 182.094ZM245.001 189.171L245.958 189.461L245.958 189.459L245.001 189.171ZM232.565 199.269L231.729 199.817L232.277 200.653L233.113 200.105L232.565 199.269ZM220.255 180.478L219.707 179.642L218.87 180.19L219.418 181.026L220.255 180.478ZM234.043 173.32L233.938 174.314L233.946 174.315L234.043 173.32ZM238.931 179.146L237.935 179.048L237.935 179.056L237.934 179.063L238.931 179.146ZM229.812 185.081L228.976 185.629L229.524 186.466L230.36 185.918L229.812 185.081ZM234.208 181.513L235.161 181.814L235.163 181.809L234.208 181.513ZM232.279 178.569L232.147 179.56L232.157 179.561L232.168 179.563L232.279 178.569ZM227.234 181.147L226.686 180.31L225.85 180.858L226.398 181.695L227.234 181.147ZM239.528 188.701L240.484 188.997L240.485 188.992L239.528 188.701ZM237.485 185.64L237.347 186.63L237.357 186.632L237.367 186.633L237.485 185.64ZM232.004 188.427L231.456 187.591L230.62 188.139L231.168 188.975L232.004 188.427ZM234.722 192.576L233.886 193.124L234.434 193.961L235.27 193.413L234.722 192.576ZM237.99 183.112C239.016 182.714 240.003 182.695 240.993 183.039L241.649 181.149C240.197 180.645 238.721 180.683 237.267 181.247L237.99 183.112ZM241.003 183.042C241.995 183.375 242.776 183.979 243.369 184.884L245.042 183.788C244.208 182.516 243.066 181.625 241.639 181.146L241.003 183.042ZM243.369 184.884C244.252 186.232 244.448 187.539 244.043 188.882L245.958 189.459C246.55 187.497 246.217 185.581 245.042 183.788L243.369 184.884ZM244.044 188.88C243.642 190.206 242.611 191.492 240.77 192.698L241.866 194.371C243.95 193.005 245.375 191.381 245.958 189.461L244.044 188.88ZM240.77 192.698L232.017 198.432L233.113 200.105L241.866 194.371L240.77 192.698ZM233.402 198.721L221.091 179.93L219.418 181.026L231.729 199.817L233.402 198.721ZM220.803 181.315L229.261 175.773L228.165 174.1L219.707 179.642L220.803 181.315ZM229.261 175.773C231.051 174.601 232.597 174.173 233.938 174.314L234.147 172.325C232.201 172.12 230.195 172.771 228.165 174.1L229.261 175.773ZM233.946 174.315C235.281 174.445 236.341 175.091 237.171 176.358L238.844 175.262C237.71 173.531 236.127 172.517 234.139 172.324L233.946 174.315ZM237.171 176.358C237.794 177.309 238.019 178.197 237.935 179.048L239.926 179.243C240.061 177.86 239.671 176.524 238.844 175.262L237.171 176.358ZM237.934 179.063C237.861 179.944 237.519 180.762 236.865 181.533L238.391 182.826C239.291 181.764 239.817 180.559 239.927 179.229L237.934 179.063ZM230.36 185.918L233.358 183.954L232.262 182.281L229.264 184.245L230.36 185.918ZM233.358 183.954C234.212 183.395 234.884 182.696 235.161 181.814L233.254 181.213C233.167 181.487 232.908 181.858 232.262 182.281L233.358 183.954ZM235.163 181.809C235.458 180.857 235.242 179.925 234.695 179.09L233.022 180.186C233.317 180.635 233.334 180.953 233.252 181.217L235.163 181.809ZM234.695 179.09C234.148 178.255 233.379 177.685 232.389 177.575L232.168 179.563C232.443 179.593 232.728 179.736 233.022 180.186L234.695 179.09ZM232.411 177.578C231.471 177.452 230.547 177.781 229.684 178.346L230.78 180.019C231.417 179.602 231.856 179.521 232.147 179.56L232.411 177.578ZM229.684 178.346L226.686 180.31L227.782 181.983L230.78 180.019L229.684 178.346ZM226.398 181.695L228.976 185.629L230.649 184.533L228.071 180.599L226.398 181.695ZM238.643 191.203C239.521 190.628 240.202 189.906 240.484 188.997L238.573 188.405C238.478 188.711 238.204 189.1 237.547 189.53L238.643 191.203ZM240.485 188.992C240.782 188.018 240.57 187.064 240.008 186.206L238.335 187.302C238.638 187.765 238.664 188.109 238.572 188.409L240.485 188.992ZM240.008 186.206C239.437 185.336 238.63 184.769 237.603 184.647L237.367 186.633C237.724 186.676 238.04 186.852 238.335 187.302L240.008 186.206ZM237.623 184.65C236.637 184.512 235.674 184.828 234.775 185.416L235.871 187.089C236.507 186.673 236.985 186.58 237.347 186.63L237.623 184.65ZM234.775 185.416L231.456 187.591L232.552 189.264L235.871 187.089L234.775 185.416ZM231.168 188.975L233.886 193.124L235.559 192.028L232.841 187.879L231.168 188.975ZM235.27 193.413L238.643 191.203L237.547 189.53L234.174 191.74L235.27 193.413ZM259.792 181.431L259.324 182.315L259.846 182.592L260.34 182.268L259.792 181.431ZM251.237 176.898L251.705 176.015L251.183 175.738L250.689 176.062L251.237 176.898ZM250.14 177.617L249.592 176.781L248.755 177.329L249.303 178.165L250.14 177.617ZM254.787 184.711L255.335 185.547L256.171 184.999L255.623 184.163L254.787 184.711ZM250.209 187.709L249.373 188.257L249.921 189.094L250.757 188.546L250.209 187.709ZM237.899 168.919L237.351 168.082L236.515 168.63L237.063 169.467L237.899 168.919ZM249.864 162.19L249.98 163.183L249.987 163.182L249.864 162.19ZM253.623 162.788L253.166 163.678L253.174 163.681L253.623 162.788ZM257.484 169.325L256.485 169.276L256.485 169.288L257.484 169.325ZM255.747 173.447L254.982 172.802L254.163 173.773L255.3 174.341L255.747 173.447ZM264.958 178.047L265.506 178.883L266.962 177.93L265.405 177.152L264.958 178.047ZM248.018 174.379L247.181 174.927L247.729 175.763L248.566 175.215L248.018 174.379ZM252.326 170.677L251.351 170.452L251.349 170.462L251.347 170.473L252.326 170.677ZM250.081 167.25L249.877 168.229L249.887 168.231L249.898 168.233L250.081 167.25ZM244.967 169.721L244.419 168.885L243.582 169.433L244.13 170.269L244.967 169.721ZM260.26 180.548L251.705 176.015L250.769 177.782L259.324 182.315L260.26 180.548ZM250.689 176.062L249.592 176.781L250.688 178.454L251.785 177.735L250.689 176.062ZM249.303 178.165L253.95 185.259L255.623 184.163L250.976 177.069L249.303 178.165ZM254.239 183.874L249.661 186.873L250.757 188.546L255.335 185.547L254.239 183.874ZM251.046 187.161L238.736 168.371L237.063 169.467L249.373 188.257L251.046 187.161ZM238.447 169.755L246.129 164.722L245.033 163.049L237.351 168.082L238.447 169.755ZM246.129 164.722C247.516 163.814 248.797 163.321 249.98 163.183L249.748 161.196C248.183 161.379 246.609 162.017 245.033 163.049L246.129 164.722ZM249.987 163.182C251.205 163.031 252.252 163.209 253.166 163.678L254.079 161.898C252.766 161.225 251.307 161.003 249.741 161.197L249.987 163.182ZM253.174 163.681C254.107 164.15 254.891 164.855 255.526 165.825L257.199 164.729C256.385 163.486 255.342 162.532 254.071 161.894L253.174 163.681ZM255.526 165.825C256.233 166.903 256.546 168.044 256.485 169.276L258.483 169.373C258.564 167.707 258.13 166.15 257.199 164.729L255.526 165.825ZM256.485 169.288C256.442 170.461 255.972 171.628 254.982 172.802L256.511 174.091C257.732 172.644 258.421 171.063 258.483 169.361L256.485 169.288ZM255.3 174.341L264.511 178.942L265.405 177.152L256.194 172.552L255.3 174.341ZM264.41 177.211L259.244 180.595L260.34 182.268L265.506 178.883L264.41 177.211ZM248.566 175.215L251.403 173.356L250.307 171.683L247.47 173.542L248.566 175.215ZM251.403 173.356C252.365 172.726 253.089 171.916 253.304 170.881L251.347 170.473C251.279 170.796 251.023 171.214 250.307 171.683L251.403 173.356ZM253.3 170.901C253.536 169.879 253.263 168.882 252.665 167.968L250.992 169.064C251.375 169.649 251.434 170.092 251.351 170.452L253.3 170.901ZM252.665 167.968C252.08 167.076 251.283 166.457 250.264 166.267L249.898 168.233C250.273 168.303 250.641 168.528 250.992 169.064L252.665 167.968ZM250.285 166.271C249.249 166.056 248.217 166.396 247.256 167.026L248.352 168.699C249.068 168.23 249.554 168.162 249.877 168.229L250.285 166.271ZM247.256 167.026L244.419 168.885L245.515 170.557L248.352 168.699L247.256 167.026ZM244.13 170.269L247.181 174.927L248.854 173.831L245.803 169.173L244.13 170.269ZM262.34 158.148L261.792 157.311L260.956 157.859L261.504 158.696L262.34 158.148ZM264.83 161.949L263.994 162.497L264.542 163.333L265.378 162.785L264.83 161.949ZM270.96 157.933L271.797 157.385L271.249 156.548L270.412 157.096L270.96 157.933ZM273.275 161.466L273.823 162.303L274.659 161.755L274.111 160.918L273.275 161.466ZM267.145 165.482L266.597 164.645L265.761 165.193L266.309 166.03L267.145 165.482ZM269.846 169.604L269.009 170.152L269.557 170.989L270.394 170.441L269.846 169.604ZM276.778 165.062L277.615 164.514L277.067 163.678L276.23 164.226L276.778 165.062ZM279.181 168.729L279.729 169.566L280.565 169.018L280.017 168.181L279.181 168.729ZM267.671 176.27L266.834 176.818L267.382 177.654L268.219 177.106L267.671 176.27ZM255.361 157.479L254.813 156.643L253.976 157.191L254.524 158.027L255.361 157.479ZM266.871 149.939L267.707 149.391L267.159 148.554L266.323 149.102L266.871 149.939ZM269.273 153.606L269.821 154.442L270.658 153.894L270.11 153.058L269.273 153.606ZM261.504 158.696L263.994 162.497L265.667 161.401L263.177 157.6L261.504 158.696ZM265.378 162.785L271.508 158.769L270.412 157.096L264.282 161.112L265.378 162.785ZM270.124 158.481L272.438 162.014L274.111 160.918L271.797 157.385L270.124 158.481ZM272.727 160.63L266.597 164.645L267.693 166.318L273.823 162.303L272.727 160.63ZM266.309 166.03L269.009 170.152L270.682 169.056L267.982 164.934L266.309 166.03ZM270.394 170.441L277.326 165.899L276.23 164.226L269.298 168.768L270.394 170.441ZM275.942 165.61L278.344 169.277L280.017 168.181L277.615 164.514L275.942 165.61ZM278.633 167.893L267.123 175.433L268.219 177.106L279.729 169.566L278.633 167.893ZM268.507 175.722L256.197 156.931L254.524 158.027L266.834 176.818L268.507 175.722ZM255.909 158.316L267.419 150.775L266.323 149.102L254.813 156.643L255.909 158.316ZM266.034 150.487L268.437 154.154L270.11 153.058L267.707 149.391L266.034 150.487ZM268.725 152.769L261.792 157.311L262.888 158.984L269.821 154.442L268.725 152.769ZM287.482 136.436L288.453 136.199L288.118 134.823L286.934 135.599L287.482 136.436ZM293.127 159.593L293.675 160.429L294.266 160.042L294.099 159.356L293.127 159.593ZM287.399 163.346L286.794 164.142L287.356 164.569L287.947 164.182L287.399 163.346ZM268.424 148.921L267.876 148.085L266.691 148.861L267.818 149.717L268.424 148.921ZM273.295 145.73L273.919 144.948L273.353 144.496L272.747 144.893L273.295 145.73ZM287.247 156.865L286.623 157.647L288.997 159.541L288.213 156.607L287.247 156.865ZM282.637 139.61L282.089 138.773L281.484 139.169L281.671 139.868L282.637 139.61ZM286.51 136.673L292.156 159.83L294.099 159.356L288.453 136.199L286.51 136.673ZM292.579 158.756L286.851 162.509L287.947 164.182L293.675 160.429L292.579 158.756ZM288.004 162.549L269.029 148.125L267.818 149.717L286.794 164.142L288.004 162.549ZM268.972 149.758L273.843 146.566L272.747 144.893L267.876 148.085L268.972 149.758ZM272.671 146.511L286.623 157.647L287.871 156.084L273.919 144.948L272.671 146.511ZM288.213 156.607L283.603 139.352L281.671 139.868L286.281 157.123L288.213 156.607ZM283.185 140.446L288.03 137.272L286.934 135.599L282.089 138.773L283.185 140.446ZM296.375 135.851L295.827 135.014L294.99 135.562L295.538 136.399L296.375 135.851ZM298.865 139.652L298.028 140.2L298.576 141.036L299.413 140.488L298.865 139.652ZM304.994 135.636L305.831 135.088L305.283 134.252L304.446 134.8L304.994 135.636ZM307.309 139.169L307.857 140.006L308.694 139.458L308.146 138.621L307.309 139.169ZM301.179 143.185L300.631 142.349L299.795 142.897L300.343 143.733L301.179 143.185ZM303.88 147.307L303.043 147.855L303.591 148.692L304.428 148.144L303.88 147.307ZM310.813 142.765L311.649 142.217L311.101 141.381L310.265 141.929L310.813 142.765ZM313.215 146.433L313.763 147.269L314.6 146.721L314.052 145.885L313.215 146.433ZM301.705 153.973L300.869 154.521L301.417 155.358L302.253 154.81L301.705 153.973ZM289.395 135.182L288.847 134.346L288.01 134.894L288.558 135.73L289.395 135.182ZM300.905 127.642L301.741 127.094L301.193 126.257L300.357 126.805L300.905 127.642ZM303.307 131.309L303.855 132.146L304.692 131.598L304.144 130.761L303.307 131.309ZM295.538 136.399L298.028 140.2L299.701 139.104L297.211 135.303L295.538 136.399ZM299.413 140.488L305.542 136.473L304.446 134.8L298.317 138.815L299.413 140.488ZM304.158 136.184L306.473 139.717L308.146 138.621L305.831 135.088L304.158 136.184ZM306.761 138.333L300.631 142.349L301.727 144.022L307.857 140.006L306.761 138.333ZM300.343 143.733L303.043 147.855L304.716 146.759L302.016 142.637L300.343 143.733ZM304.428 148.144L311.361 143.602L310.265 141.929L303.332 146.471L304.428 148.144ZM309.976 143.313L312.379 146.981L314.052 145.885L311.649 142.217L309.976 143.313ZM312.667 145.596L301.157 153.137L302.253 154.81L313.763 147.269L312.667 145.596ZM302.542 153.425L290.231 134.634L288.558 135.73L300.869 154.521L302.542 153.425ZM289.943 136.019L301.453 128.478L300.357 126.805L288.847 134.346L289.943 136.019ZM300.068 128.19L302.471 131.857L304.144 130.761L301.741 127.094L300.068 128.19ZM302.759 130.473L295.827 135.014L296.923 136.687L303.855 132.146L302.759 130.473Z" fill="black"/>
</svg>
