<svg width="66" height="67" viewBox="0 0 66 67" fill="none" xmlns="http://www.w3.org/2000/svg">
<path d="M33.1479 0C15.034 0 0.296875 14.9287 0.296875 33.2787C0.296875 51.6292 15.034 66.5574 33.1479 66.5574C51.2623 66.5574 66 51.6292 66 33.2787C65.9995 14.9287 51.2618 0 33.1479 0ZM33.1479 63.2751C16.8204 63.2751 3.53699 49.819 3.53699 33.2787C3.53699 16.7389 16.8204 3.28225 33.1479 3.28225C49.4754 3.28225 62.7599 16.7389 62.7599 33.2787C62.7593 49.819 49.4754 63.2751 33.1479 63.2751Z" fill="#ffff"/>
<path d="M47.8175 22.4363C48.5724 22.0414 50.3804 20.868 51.2326 18.3494C51.2326 18.3494 49.1789 19.8537 46.3837 20.031L46.333 20.0594C44.903 18.4785 42.8471 17.4867 40.5612 17.4867C36.2367 17.4867 32.7315 21.0381 32.7315 25.4188C32.7315 26.0834 32.813 26.7289 32.9658 27.346L32.928 27.2886C32.928 27.2886 24.5415 27.7754 16.6351 19.0135C16.6351 19.0135 13.1396 25.0315 19.1246 29.6337C17.814 29.8547 15.4994 28.66 15.4994 28.66C15.4994 28.66 15.6301 34.9871 21.8328 36.5363C20.8284 36.8022 18.9496 36.8897 18.3383 36.6249C18.3383 36.6249 19.2553 41.4476 25.5897 42.289C23.9734 43.2184 20.9596 46.0499 14.1445 45.5187C14.1445 45.5187 19.0382 49.5892 28.124 49.0148C37.2099 48.4404 43.8062 42.2441 46.4707 35.6955C49.1351 29.1469 48.3937 25.4182 48.3937 25.4182C48.3937 25.4182 50.6202 24.2344 52.1506 21.403C51.4437 21.6174 48.8219 22.2662 47.8461 22.5063C47.8364 22.4834 47.8266 22.4598 47.8175 22.4363Z" fill="#ffff"/>
</svg>
